# xmcd
#
# Track frame offsets:
#	150
#	13755
#	24572
#
# Disc length: 681 seconds
#
# Revision: 1
# Processed by: cddbd v1.5.1PL2 Copyright (c) Steve Scherf et al.
# Submitted via: audiograbber 1.83.01
#
DISCID=1a02a703
DTITLE=Gorky's Zygotic Mynci - Pentref Wrth Y Môr/The Game Of Eyes
DYEAR=1994
DGENRE=
TTITLE0=Pentref Wrth Y Môr
TTITLE1=The Game Of Eyes
TTITLE2=Cwpwrdd Sadwrn
EXTD=
EXTT0=
EXTT1=
EXTT2=
PLAYORDER=
